<svg width="32" height="23" viewBox="0 0 32 23" fill="none" xmlns="http://www.w3.org/2000/svg">
<path fill-rule="evenodd" clip-rule="evenodd" d="M20.0732 0.0732117L15.75 4.39643L11.4268 0.0732117L11.0732 0.426765L15.5 4.85354V7.24999H11.5H11H0V7.74999H11V14.75H0V15.25H11H11.5H15.5V17.6464L11.0732 22.0732L11.4268 22.4268L15.75 18.1035L20.0732 22.4268L20.4268 22.0732L16 17.6464V15.25H20H20.5H31.5V14.75H20.5V7.74999H31.5V7.24999H20.25C20.1119 7.24999 20 7.36192 20 7.49999V14.75H15.75H11.5V7.74999H15.75C15.8881 7.74999 16 7.63806 16 7.49999V4.85354L20.4268 0.426765L20.0732 0.0732117Z" fill="#47453F"/>
</svg>
