<svg width="16" height="13" viewBox="0 0 16 13" fill="none" xmlns="http://www.w3.org/2000/svg">
<g clip-path="url(#clip0)">
<path d="M15.9083 2.99566C15.8348 3.24975 15.5324 3.50728 15.2438 3.56137C15.0559 3.59667 14.9255 3.55362 14.4044 3.28429C12.2991 2.19591 10.3615 1.72289 8.00978 1.72289C5.73702 1.72289 3.96864 2.14169 1.84914 3.18207C1.39416 3.40543 0.971684 3.58816 0.910604 3.58816C0.685081 3.58816 0.358096 3.39947 0.229842 3.19515C0.0539691 2.9149 0.0868581 2.44531 0.297906 2.22054C0.379049 2.1342 0.747557 1.90969 1.11657 1.72175C2.57829 0.977371 4.18197 0.467276 5.85118 0.215466C6.88419 0.0596571 8.84203 0.0286713 9.78768 0.153115C11.5322 0.38283 13.0888 0.843276 14.6137 1.58055C15.5355 2.02613 15.9147 2.30588 15.9147 2.54004C15.9147 2.58689 15.9264 2.66334 15.9407 2.70982C15.9548 2.75655 15.9403 2.88505 15.9083 2.99566ZM14.3234 6.02512C14.21 6.41483 13.7319 6.69585 13.3737 6.58321C13.287 6.55591 12.8875 6.37242 12.486 6.17559C10.7859 5.34194 8.96343 4.99515 7.1741 5.16505C5.70387 5.30474 4.77664 5.56823 3.41994 6.23197C2.50972 6.67731 2.36864 6.698 2.00216 6.43908C1.65372 6.19286 1.59721 5.57839 1.89333 5.25559C2.09854 5.03185 3.55175 4.33597 4.37473 4.0674C7.09829 3.17851 10.022 3.31413 12.6975 4.45331C14.0681 5.0368 14.4918 5.44645 14.3234 6.02512ZM12.7162 9.14918C12.6076 9.38994 12.353 9.59718 12.0964 9.65356C11.9401 9.68797 11.7671 9.6288 11.1886 9.34309C9.06349 8.29382 7.01664 8.28251 4.94095 9.30854C4.02934 9.75908 3.84787 9.76899 3.48838 9.38791C3.31099 9.19985 3.27962 9.11997 3.27962 8.85585C3.27962 8.4128 3.50222 8.18308 4.31543 7.78715C5.56622 7.17826 6.6513 6.92899 8.04153 6.93102C9.47048 6.93318 10.4514 7.16619 11.7704 7.81673C12.5256 8.18931 12.725 8.37343 12.7761 8.74639C12.7917 8.86016 12.7647 9.04137 12.7162 9.14918ZM11.219 12.0644C11.1401 12.2551 10.8805 12.4729 10.6549 12.5376C10.4027 12.6099 10.2025 12.5507 9.73168 12.2644C9.1261 11.8961 8.80114 11.8104 8.00965 11.8104C7.21829 11.8104 6.89321 11.8961 6.28762 12.2644C6.08229 12.3892 5.83632 12.5145 5.74095 12.543C5.34184 12.6616 4.8527 12.329 4.76889 11.8823C4.69778 11.5036 4.8668 11.2435 5.41029 10.8953C6.98387 9.88721 9.08597 9.88734 10.6462 10.8958C11.1967 11.2515 11.3912 11.6482 11.219 12.0644Z" fill="black"/>
</g>
<defs>
<clipPath id="clip0">
<rect width="12.5714" height="16" fill="white" transform="translate(0 12.5714) rotate(-90)"/>
</clipPath>
</defs>
</svg>
