<svg width="54" height="42" viewBox="0 0 54 42" fill="none" xmlns="http://www.w3.org/2000/svg">
<g clip-path="url(#clip0)">
<path d="M52.9008 41.4104V41.5197H53.0016C53.0239 41.5197 53.043 41.5144 53.0568 41.5059C53.0695 41.4974 53.0769 41.4825 53.0769 41.4645C53.0769 41.4465 53.0695 41.4327 53.0568 41.4242C53.043 41.4146 53.0239 41.4104 53.0016 41.4104H52.9008ZM53.0027 41.334C53.0546 41.334 53.095 41.3457 53.1236 41.369C53.1523 41.3923 53.166 41.4242 53.166 41.4645C53.166 41.4984 53.1554 41.526 53.1321 41.5483C53.1098 41.5695 53.078 41.5833 53.0355 41.5886L53.1692 41.7425H53.0653L52.9411 41.5897H52.9008V41.7425H52.8138V41.334H53.0027ZM52.9761 41.8836C53.0239 41.8836 53.0684 41.874 53.1088 41.856C53.1501 41.838 53.1862 41.8136 53.217 41.7828C53.2477 41.752 53.2722 41.7159 53.2902 41.6735C53.3072 41.6321 53.3167 41.5876 53.3167 41.5398C53.3167 41.4921 53.3072 41.4475 53.2902 41.4061C53.2722 41.3648 53.2477 41.3276 53.217 41.2969C53.1862 41.2661 53.1501 41.2417 53.1088 41.2236C53.0684 41.2067 53.0239 41.1982 52.9761 41.1982C52.9284 41.1982 52.8828 41.2067 52.8414 41.2236C52.7989 41.2417 52.7618 41.2661 52.731 41.2969C52.7003 41.3276 52.6759 41.3648 52.6589 41.4061C52.6409 41.4475 52.6324 41.4921 52.6324 41.5398C52.6324 41.5876 52.6409 41.6321 52.6589 41.6735C52.6759 41.7159 52.7003 41.752 52.731 41.7828C52.7618 41.8136 52.7989 41.838 52.8414 41.856C52.8828 41.874 52.9284 41.8836 52.9761 41.8836ZM52.9761 41.0995C53.0387 41.0995 53.096 41.1112 53.1512 41.1345C53.2053 41.1568 53.252 41.1886 53.2934 41.2289C53.3337 41.2682 53.3655 41.3149 53.3889 41.369C53.4122 41.422 53.4239 41.4793 53.4239 41.5398C53.4239 41.6003 53.4122 41.6576 53.3889 41.7106C53.3655 41.7637 53.3337 41.8104 53.2934 41.8507C53.252 41.8899 53.2053 41.9218 53.1512 41.9451C53.096 41.9685 53.0387 41.9801 52.9761 41.9801C52.9125 41.9801 52.8541 41.9685 52.7989 41.9451C52.7438 41.9218 52.696 41.8899 52.6557 41.8507C52.6154 41.8104 52.5836 41.7637 52.5602 41.7106C52.5369 41.6576 52.5252 41.6003 52.5252 41.5398C52.5252 41.4793 52.5369 41.422 52.5602 41.369C52.5836 41.3149 52.6154 41.2682 52.6557 41.2289C52.696 41.1886 52.7438 41.1568 52.7989 41.1345C52.8541 41.1112 52.9125 41.0995 52.9761 41.0995ZM11.6386 39.526C11.6386 38.7473 12.1489 38.1075 12.9828 38.1075C13.7797 38.1075 14.3176 38.7197 14.3176 39.526C14.3176 40.3324 13.7797 40.9446 12.9828 40.9446C12.1489 40.9446 11.6386 40.3048 11.6386 39.526ZM15.2258 39.526V37.3107H14.2624V37.8486C13.9568 37.4497 13.4932 37.1993 12.863 37.1993C11.6205 37.1993 10.6465 38.1733 10.6465 39.526C10.6465 40.8799 11.6205 41.8528 12.863 41.8528C13.4932 41.8528 13.9568 41.6024 14.2624 41.2035V41.7414H15.2258V39.526ZM47.7815 39.526C47.7815 38.7473 48.2918 38.1075 49.1258 38.1075C49.9236 38.1075 50.4605 38.7197 50.4605 39.526C50.4605 40.3324 49.9236 40.9446 49.1258 40.9446C48.2918 40.9446 47.7815 40.3048 47.7815 39.526ZM51.3698 39.526V35.5314H50.4053V37.8486C50.0998 37.4497 49.6361 37.1993 49.0059 37.1993C47.7634 37.1993 46.7894 38.1733 46.7894 39.526C46.7894 40.8799 47.7634 41.8528 49.0059 41.8528C49.6361 41.8528 50.0998 41.6024 50.4053 41.2035V41.7414H51.3698V39.526ZM27.1843 38.0619C27.805 38.0619 28.2039 38.4513 28.3058 39.1367H26.0066C26.1095 38.4969 26.4978 38.0619 27.1843 38.0619ZM27.2034 37.1993C25.9048 37.1993 24.9965 38.1446 24.9965 39.526C24.9965 40.935 25.9419 41.8528 27.2681 41.8528C27.9355 41.8528 28.5466 41.6862 29.0846 41.2321L28.6124 40.5181C28.2411 40.8141 27.7679 40.9817 27.3233 40.9817C26.7026 40.9817 26.1371 40.6942 25.9981 39.8963H29.2883C29.2978 39.7764 29.3074 39.6555 29.3074 39.526C29.2978 38.1446 28.4448 37.1993 27.2034 37.1993ZM38.8362 39.526C38.8362 38.7473 39.3465 38.1075 40.1805 38.1075C40.9773 38.1075 41.5152 38.7197 41.5152 39.526C41.5152 40.3324 40.9773 40.9446 40.1805 40.9446C39.3465 40.9446 38.8362 40.3048 38.8362 39.526ZM42.4234 39.526V37.3107H41.4601V37.8486C41.1534 37.4497 40.6908 37.1993 40.0606 37.1993C38.8182 37.1993 37.8442 38.1733 37.8442 39.526C37.8442 40.8799 38.8182 41.8528 40.0606 41.8528C40.6908 41.8528 41.1534 41.6024 41.4601 41.2035V41.7414H42.4234V39.526ZM33.3954 39.526C33.3954 40.8703 34.3312 41.8528 35.7593 41.8528C36.4267 41.8528 36.8712 41.7043 37.3529 41.3244L36.8903 40.5457C36.5285 40.8056 36.1487 40.9446 35.7307 40.9446C34.9614 40.935 34.3959 40.3791 34.3959 39.526C34.3959 38.673 34.9614 38.117 35.7307 38.1075C36.1487 38.1075 36.5285 38.2465 36.8903 38.5064L37.3529 37.7277C36.8712 37.3478 36.4267 37.1993 35.7593 37.1993C34.3312 37.1993 33.3954 38.1818 33.3954 39.526ZM45.8165 37.1993C45.2605 37.1993 44.8987 37.4592 44.6484 37.8486V37.3107H43.6935V41.7414H44.6579V39.2576C44.6579 38.5245 44.973 38.117 45.6033 38.117C45.7985 38.117 46.0022 38.1446 46.2059 38.2284L46.503 37.3202C46.2897 37.2364 46.0117 37.1993 45.8165 37.1993ZM19.9907 37.6629C19.5271 37.3574 18.8884 37.1993 18.1839 37.1993C17.0613 37.1993 16.3388 37.7372 16.3388 38.6178C16.3388 39.3404 16.8767 39.786 17.8677 39.925L18.3229 39.9897C18.8512 40.064 19.1006 40.203 19.1006 40.4534C19.1006 40.7961 18.7483 40.9913 18.0905 40.9913C17.4231 40.9913 16.9414 40.778 16.6168 40.5276L16.1627 41.2778C16.691 41.6671 17.3584 41.8528 18.0809 41.8528C19.3605 41.8528 20.1022 41.2502 20.1022 40.4067C20.1022 39.6279 19.5186 39.2205 18.5542 39.0815L18.1 39.0157C17.6831 38.9605 17.3489 38.8778 17.3489 38.5807C17.3489 38.256 17.664 38.0619 18.1924 38.0619C18.7579 38.0619 19.3053 38.2751 19.5738 38.4417L19.9907 37.6629ZM32.4214 37.1993C31.8654 37.1993 31.5036 37.4592 31.2543 37.8486V37.3107H30.2994V41.7414H31.2628V39.2576C31.2628 38.5245 31.5779 38.117 32.2081 38.117C32.4034 38.117 32.6071 38.1446 32.8108 38.2284L33.1079 37.3202C32.8946 37.2364 32.6166 37.1993 32.4214 37.1993ZM24.1997 37.3107H22.6241V35.9664H21.6501V37.3107H20.7515V38.1913H21.6501V40.2125C21.6501 41.2406 22.0491 41.8528 23.1886 41.8528C23.6066 41.8528 24.0883 41.7234 24.3939 41.5101L24.1159 40.6847C23.8284 40.8512 23.5133 40.935 23.2629 40.935C22.7812 40.935 22.6241 40.638 22.6241 40.1934V38.1913H24.1997V37.3107ZM9.79455 41.7414V38.9605C9.79455 37.9133 9.12718 37.2088 8.05133 37.1993C7.48582 37.1897 6.90227 37.3659 6.49378 37.9876C6.18822 37.4964 5.70652 37.1993 5.0296 37.1993C4.5564 37.1993 4.0938 37.3383 3.732 37.8571V37.3107H2.76756V41.7414H3.74049V39.2852C3.74049 38.516 4.16701 38.1075 4.82589 38.1075C5.46567 38.1075 5.78928 38.5245 5.78928 39.2756V41.7414H6.76327V39.2852C6.76327 38.516 7.20783 38.1075 7.84761 38.1075C8.50543 38.1075 8.82055 38.5245 8.82055 39.2756V41.7414H9.79455Z" fill="#231F20"/>
<path d="M53.4949 27.0086V26.3614H53.3262L53.131 26.806L52.9368 26.3614H52.7671V27.0086H52.8869V26.5206L53.0694 26.9418H53.1936L53.3761 26.5195V27.0086H53.4949ZM52.4244 27.0086V26.4718H52.6408V26.3625H52.0891V26.4718H52.3055V27.0086H52.4244Z" fill="#F79410"/>
<path d="M34.3121 29.7928H19.711V3.5563H34.3121V29.7928Z" fill="#FF5F00"/>
<path d="M20.6464 16.6719C20.6464 11.3497 23.1387 6.60882 27.0198 3.55362C24.1816 1.31951 20.5997 -0.0139574 16.7069 -0.0139574C7.49106 -0.0139574 0.0205688 7.45642 0.0205688 16.6719C0.0205688 25.8873 7.49106 33.3577 16.7069 33.3577C20.5997 33.3577 24.1816 32.0242 27.0198 29.7901C23.1387 26.7349 20.6464 21.9941 20.6464 16.6719Z" fill="#EB001B"/>
<path d="M54.0042 16.6719C54.0042 25.8873 46.5337 33.3577 37.3179 33.3577C33.4251 33.3577 29.8432 32.0242 27.0039 29.7901C30.8861 26.7349 33.3784 21.9941 33.3784 16.6719C33.3784 11.3497 30.8861 6.60882 27.0039 3.55362C29.8432 1.31951 33.4251 -0.0139574 37.3179 -0.0139574C46.5337 -0.0139574 54.0042 7.45642 54.0042 16.6719Z" fill="#F79E1B"/>
</g>
<defs>
<clipPath id="clip0">
<rect width="54" height="42" fill="white"/>
</clipPath>
</defs>
</svg>
