<svg width="20" height="20" viewBox="0 0 20 20" fill="none" xmlns="http://www.w3.org/2000/svg">
<path d="M9.99996 9.99994C12.3011 9.99994 14.1666 8.13446 14.1666 5.83327C14.1666 3.53208 12.3011 1.6666 9.99996 1.6666C7.69878 1.6666 5.8333 3.53208 5.8333 5.83327C5.8333 8.13446 7.69878 9.99994 9.99996 9.99994Z" stroke="white" stroke-width="2"/>
<path d="M14.1667 11.6666H14.46C15.0692 11.6668 15.6574 11.8894 16.1141 12.2927C16.5708 12.6959 16.8644 13.2521 16.94 13.8566L17.2658 16.4599C17.2951 16.6945 17.2742 16.9325 17.2045 17.1584C17.1348 17.3842 17.0178 17.5926 16.8613 17.7698C16.7049 17.9469 16.5126 18.0888 16.2971 18.186C16.0817 18.2831 15.848 18.3333 15.6117 18.3333H4.38833C4.15198 18.3333 3.91832 18.2831 3.70287 18.186C3.48741 18.0888 3.29508 17.9469 3.13864 17.7698C2.9822 17.5926 2.86523 17.3842 2.7955 17.1584C2.72576 16.9325 2.70485 16.6945 2.73416 16.4599L3.05916 13.8566C3.13474 13.2518 3.42867 12.6954 3.88569 12.2921C4.3427 11.8888 4.93131 11.6664 5.54083 11.6666H5.83333" stroke="white" stroke-width="2" stroke-linecap="round" stroke-linejoin="round"/>
</svg>
