<svg width="234" height="200" viewBox="0 0 234 200" fill="none" xmlns="http://www.w3.org/2000/svg">
<path d="M158.072 8.34832C158.072 8.34832 126.11 48.8338 74.9712 24.6849C23.8324 0.536034 -27.3065 65.8801 16.7298 105.655C60.7661 145.429 17.6733 167.285 47.5897 191.662C81.5918 219.368 111.195 163.186 138.184 175.971C197.752 204.187 241.882 193.017 231.939 160.345C214.484 102.993 192.165 99.2628 209.211 69.4313C226.256 39.5998 188.636 -22.4256 158.072 8.34832Z" fill="#DCEFDC"/>
<path d="M116.152 99.8854V184.823L50.2051 156.339L50.5197 71.7082L116.152 99.8854Z" fill="#5FB962"/>
<path d="M116.153 99.9362V184.874L181.78 157.373V71.9792L116.153 99.9362Z" fill="#83C985"/>
<path d="M116.152 99.8854L182.1 72.2636L116.67 43.2606L50.2051 71.5731L116.152 99.8854Z" fill="#4CAF50"/>
<path d="M32.1963 86.725L98.5635 118.939C98.7419 119.026 98.9437 119.051 99.138 119.012C99.3324 118.972 99.5084 118.87 99.6391 118.721L116.153 99.8853L50.2054 71.5729L32.0486 85.1868C31.9245 85.2799 31.8263 85.4033 31.7637 85.5453C31.701 85.6872 31.6758 85.8429 31.6907 85.9974C31.7055 86.1518 31.7598 86.2999 31.8483 86.4273C31.9369 86.5547 32.0567 86.6572 32.1963 86.725Z" fill="#95D097"/>
<path d="M182.1 72.2635L200.415 88.8223C200.527 88.9233 200.612 89.0506 200.662 89.1927C200.712 89.3348 200.726 89.4871 200.702 89.6359C200.678 89.7847 200.618 89.9252 200.526 90.0447C200.435 90.1642 200.315 90.259 200.177 90.3203L134.628 119.575C134.453 119.653 134.258 119.673 134.07 119.633C133.883 119.593 133.713 119.495 133.585 119.352L116.152 99.8854L182.1 72.2635Z" fill="#95D097"/>
<path d="M116.67 43.2606L182.283 72.2635L191.719 70.0765C191.904 70.0334 192.072 69.933 192.197 69.7894C192.322 69.6458 192.398 69.4664 192.416 69.2768C192.433 69.0871 192.39 68.8968 192.293 68.733C192.196 68.5692 192.049 68.4403 191.874 68.3645L131.962 42.4045C131.831 42.3477 131.688 42.3227 131.546 42.3317L116.67 43.2606Z" fill="#95D097"/>
<path d="M116.67 43.2605L51.4253 71.7081L43.1775 70.3221C42.9865 70.2865 42.8121 70.1903 42.68 70.0479C42.5479 69.9055 42.4651 69.7244 42.4439 69.5313C42.4227 69.3382 42.4642 69.1434 42.5622 68.9757C42.6603 68.808 42.8097 68.6763 42.9883 68.6001L104.382 42.1419C104.517 42.0842 104.665 42.0605 104.812 42.0729L116.67 43.2605Z" fill="#95D097"/>
<path d="M145.7 159.5L144.395 158.994C147.287 151.548 150.913 147.446 155.174 146.802C159.25 146.186 162.682 148.994 163.928 150.565L162.831 151.435C161.97 150.348 158.953 147.647 155.383 148.187C151.707 148.742 148.359 152.655 145.7 159.5Z" fill="white"/>
<path d="M166.435 126.938C167.545 126.938 168.445 125.295 168.445 123.269C168.445 121.243 167.545 119.6 166.435 119.6C165.325 119.6 164.425 121.243 164.425 123.269C164.425 125.295 165.325 126.938 166.435 126.938Z" fill="white"/>
<path d="M134.052 140.132C135.162 140.132 136.062 138.489 136.062 136.463C136.062 134.437 135.162 132.794 134.052 132.794C132.942 132.794 132.042 134.437 132.042 136.463C132.042 138.489 132.942 140.132 134.052 140.132Z" fill="white"/>
</svg>
